<?xml version="1.0" standalone="no"?>
<!DOCTYPE svg PUBLIC "-//W3C//DTD SVG 20010904//EN"
 "http://www.w3.org/TR/2001/REC-SVG-20010904/DTD/svg10.dtd">
<svg version="1.0" xmlns="http://www.w3.org/2000/svg"
 width="16.000000pt" height="16.000000pt" viewBox="0 0 16.000000 16.000000"
 preserveAspectRatio="xMidYMid meet">
<metadata>
Created by potrace 1.11, written by Peter Selinger 2001-2013
</metadata>
<g transform="translate(0.000000,16.000000) scale(0.002309,-0.002309)"
fill="#000000" stroke="none">
<path d="M0 3465 l0 -3465 75 0 75 0 0 195 0 194 158 3 157 3 3 202 2 202 158
3 157 3 3 203 2 202 2675 0 2675 0 2 -202 3 -203 157 -3 158 -3 2 -202 3 -202
153 -3 152 -3 0 -194 0 -195 80 0 80 0 0 3465 0 3465 -3465 0 -3465 0 0 -3465z
m4945 2693 l1475 -761 0 -119 0 -118 -2955 0 -2956 0 3 121 3 121 1465 758
c806 417 1471 758 1478 759 7 1 676 -342 1487 -761z m905 -1323 l0 -195 -2385
0 -2385 0 0 195 0 195 2385 0 2385 0 0 -195z m-4026 -487 c3 -90 15 -521 26
-958 11 -437 27 -1040 35 -1340 8 -300 15 -582 15 -627 l0 -83 -335 0 -335 0
0 145 c0 80 4 322 10 538 15 602 29 1201 40 1767 6 283 13 561 16 618 l6 102
258 0 258 0 6 -162z m1260 150 c3 -7 12 -310 21 -673 9 -363 20 -817 25 -1010
5 -192 14 -532 20 -755 5 -223 12 -476 16 -562 l6 -158 -342 0 -343 0 7 208
c3 114 11 407 16 652 6 245 14 634 20 865 5 231 14 645 20 920 6 275 13 506
15 513 6 18 514 18 519 0z m1270 -140 c4 -84 13 -418 21 -743 22 -865 34
-1338 45 -1715 6 -184 10 -386 10 -447 l0 -113 -335 0 -335 0 0 128 c0 70 5
305 10 522 12 487 26 1134 40 1760 5 261 13 539 16 618 l6 142 258 0 258 0 6
-152z m1268 -73 c3 -121 11 -413 17 -650 6 -236 16 -594 21 -795 5 -201 14
-545 20 -765 5 -220 12 -475 16 -568 l6 -167 -342 0 -342 0 6 188 c3 103 11
396 16 652 6 256 15 647 20 870 5 223 14 637 21 920 6 283 12 521 15 528 3 10
60 12 261 10 l258 -3 7 -220z"/>
</g>
</svg>
