<?xml version="1.0" standalone="no"?>
<!DOCTYPE svg PUBLIC "-//W3C//DTD SVG 20010904//EN"
 "http://www.w3.org/TR/2001/REC-SVG-20010904/DTD/svg10.dtd">
<svg version="1.0" xmlns="http://www.w3.org/2000/svg"
 width="16.000000pt" height="16.000000pt" viewBox="0 0 16.000000 16.000000"
 preserveAspectRatio="xMidYMid meet">
<metadata>
Created by potrace 1.11, written by Peter Selinger 2001-2013
</metadata>
<g transform="translate(0.000000,16.000000) scale(0.001250,-0.001250)"
fill="#000000" stroke="none">
<path d="M0 6395 l0 -5195 6400 0 6400 0 0 5195 0 5195 -6400 0 -6400 0 0
-5195z m12640 0 l0 -5035 -6240 0 -6240 0 0 5035 0 5035 6240 0 6240 0 0
-5035z"/>
<path d="M5955 11039 c-1129 -84 -2160 -458 -3010 -1093 -273 -203 -630 -540
-834 -785 -547 -657 -869 -1364 -986 -2161 -90 -613 -34 -1270 157 -1860 307
-944 946 -1774 1844 -2393 284 -196 716 -426 1044 -557 896 -359 1899 -492
2885 -384 719 79 1402 283 2022 604 976 506 1764 1295 2199 2205 299 626 435
1294 404 1985 -5 105 -11 209 -14 233 -46 350 -83 531 -168 812 -77 256 -240
624 -388 875 -413 702 -1002 1284 -1765 1745 -146 88 -526 277 -700 349 -581
238 -1186 378 -1850 426 -162 11 -678 11 -840 -1z m1955 -1532 l1475 -762 0
-115 0 -115 -2952 -3 -2953 -2 0 118 0 117 1473 762 c809 419 1474 762 1477
762 3 0 669 -343 1480 -762z m908 -1324 l2 -193 -2385 0 -2385 0 0 195 0 195
2383 -2 2382 -3 3 -192z m-4024 -495 c4 -95 15 -528 26 -963 12 -434 27 -1035
35 -1335 8 -300 15 -580 15 -622 l0 -78 -335 0 -335 0 0 140 c0 78 4 317 10
533 14 585 28 1191 40 1762 6 281 13 561 16 623 l6 112 258 0 258 0 6 -172z
m1260 160 c3 -7 12 -312 21 -678 9 -366 20 -822 25 -1015 5 -192 14 -532 20
-755 5 -223 12 -474 16 -557 l6 -153 -342 0 -342 0 6 203 c4 111 11 402 16
647 6 245 14 634 20 865 5 231 14 647 20 925 6 278 13 511 15 518 3 9 64 12
260 12 196 0 257 -3 259 -12z m1270 -150 c4 -90 13 -426 21 -748 23 -890 34
-1342 45 -1710 6 -184 10 -383 10 -442 l0 -108 -335 0 -335 0 0 123 c0 67 5
300 10 517 11 469 26 1107 40 1755 5 259 13 539 16 623 l6 152 258 0 258 0 6
-162z m1268 -68 c3 -124 11 -418 17 -655 6 -236 16 -594 21 -795 5 -201 14
-545 20 -765 5 -220 12 -473 16 -562 l6 -163 -342 0 -342 0 6 183 c4 100 11
391 16 647 6 256 15 645 20 865 5 220 14 636 20 925 7 289 13 531 16 538 3 10
60 12 261 10 l258 -3 7 -225z m518 -3275 l0 -205 160 0 160 0 0 -205 0 -205
155 0 155 0 0 -195 0 -195 -3310 0 -3310 0 0 195 0 194 158 3 157 3 3 202 2
202 158 3 157 3 3 203 2 202 2675 0 2675 0 0 -205z"/>
</g>
</svg>
